<svg viewBox="0 0 177 40" fill="none" xmlns="http://www.w3.org/2000/svg">
<path d="M9.71924 39.6287V27.5944H11.1052V39.6287H9.71924ZM1.13298 39.6287V27.5944H2.50205V39.6287H1.13298ZM1.77526 34.1017V32.9354H10.4967V34.1017H1.77526Z" fill="#0A2642"/>
<path d="M19.2553 39.7639C18.1285 39.7639 17.1538 39.516 16.3313 39.0202C15.52 38.5244 14.889 37.8145 14.4382 36.8905C13.9988 35.9665 13.7791 34.8735 13.7791 33.6115C13.7791 32.3382 13.9988 31.2452 14.4382 30.3325C14.8777 29.4085 15.5031 28.6986 16.3144 28.2028C17.1369 27.7071 18.1173 27.4592 19.2553 27.4592C20.3821 27.4592 21.3568 27.7071 22.1794 28.2028C23.002 28.6986 23.633 29.4085 24.0724 30.3325C24.5119 31.2452 24.7316 32.3326 24.7316 33.5946C24.7316 34.8679 24.5063 35.9665 24.0555 36.8905C23.6161 37.8145 22.9851 38.5244 22.1625 39.0202C21.3512 39.516 20.3821 39.7639 19.2553 39.7639ZM19.2553 38.5807C20.5286 38.5807 21.5202 38.1525 22.2301 37.2962C22.94 36.4285 23.2949 35.1947 23.2949 33.5946C23.2949 31.9945 22.94 30.772 22.2301 29.9269C21.5202 29.0705 20.5286 28.6423 19.2553 28.6423C17.982 28.6423 16.9848 29.0705 16.2637 29.9269C15.5538 30.7832 15.1988 32.0058 15.1988 33.5946C15.1988 35.1834 15.5538 36.4116 16.2637 37.2793C16.9848 38.1469 17.982 38.5807 19.2553 38.5807Z" fill="#0A2642"/>
<path d="M27.4196 39.6287V27.5944H28.5689L33.4536 38.699H32.8114L37.6454 27.5944H38.7947V39.6287H37.5101V29.4198L38.0341 29.4874L33.6058 39.6287H32.6254L28.1295 29.4874L28.6873 29.4198L28.7042 39.6287H27.4196Z" fill="#0A2642"/>
<path d="M41.9081 39.6287V27.5944H49.5141V28.7437H43.2772V32.9354H49.176V34.1017H43.2772V38.4793H49.5141V39.6287H41.9081Z" fill="#0A2642"/>
<path d="M56.5416 39.6287V27.5944H57.9275V38.4455H63.9616V39.6287H56.5416Z" fill="#0A2642"/>
<path d="M70.3064 39.7639C69.1796 39.7639 68.2049 39.516 67.3823 39.0202C66.571 38.5244 65.94 37.8145 65.4893 36.8905C65.0498 35.9665 64.8301 34.8735 64.8301 33.6115C64.8301 32.3382 65.0498 31.2452 65.4893 30.3325C65.9287 29.4085 66.5541 28.6986 67.3654 28.2028C68.188 27.7071 69.1683 27.4592 70.3064 27.4592C71.4332 27.4592 72.4079 27.7071 73.2304 28.2028C74.053 28.6986 74.684 29.4085 75.1235 30.3325C75.5629 31.2452 75.7826 32.3326 75.7826 33.5946C75.7826 34.8679 75.5573 35.9665 75.1066 36.8905C74.6671 37.8145 74.0361 38.5244 73.2135 39.0202C72.4022 39.516 71.4332 39.7639 70.3064 39.7639ZM70.3064 38.5807C71.5796 38.5807 72.5712 38.1525 73.2811 37.2962C73.991 36.4285 74.346 35.1947 74.346 33.5946C74.346 31.9945 73.991 30.772 73.2811 29.9269C72.5712 29.0705 71.5796 28.6423 70.3064 28.6423C69.0331 28.6423 68.0358 29.0705 67.3147 29.9269C66.6048 30.7832 66.2499 32.0058 66.2499 33.5946C66.2499 35.1834 66.6048 36.4116 67.3147 37.2793C68.0358 38.1469 69.0331 38.5807 70.3064 38.5807Z" fill="#0A2642"/>
<path d="M78.4435 39.6287H77.0069L82.2972 27.5944H83.5142L88.8045 39.6287H87.3848L82.6691 28.6085H83.1761L78.4435 39.6287ZM79.2549 36.5356L79.745 35.3862H86.0664L86.5565 36.5356H79.2549Z" fill="#0A2642"/>
<path d="M90.7474 39.6287V27.5944H91.8122L99.4857 37.8201L99.0801 37.9216V27.5944H100.398V39.6287H99.3167L91.6601 29.4198L92.0488 29.3015V39.6287H90.7474Z" fill="#0A2642"/>
<path d="M107.323 39.7639C106.703 39.7639 106.123 39.7132 105.582 39.6118C105.041 39.4991 104.539 39.3301 104.077 39.1047C103.615 38.8681 103.199 38.5807 102.827 38.2427L103.351 37.1779C103.959 37.6849 104.568 38.0455 105.176 38.2596C105.796 38.4737 106.517 38.5807 107.34 38.5807C108.297 38.5807 109.041 38.3948 109.571 38.023C110.1 37.6399 110.365 37.1046 110.365 36.4173C110.365 36.0003 110.23 35.6679 109.959 35.42C109.7 35.1609 109.34 34.9581 108.878 34.8116C108.427 34.6538 107.914 34.5073 107.34 34.3721C106.765 34.2482 106.218 34.1073 105.7 33.9496C105.182 33.7805 104.72 33.5721 104.314 33.3242C103.92 33.0763 103.61 32.7608 103.384 32.3777C103.159 31.9946 103.046 31.5157 103.046 30.941C103.046 30.2536 103.227 29.6508 103.587 29.1325C103.948 28.6029 104.455 28.1916 105.108 27.8986C105.762 27.6056 106.534 27.4592 107.424 27.4592C107.976 27.4592 108.506 27.5211 109.013 27.6451C109.52 27.7578 109.988 27.9268 110.416 28.1521C110.855 28.3775 111.244 28.6536 111.582 28.9803L111.041 30.0452C110.489 29.5606 109.92 29.2057 109.334 28.9803C108.748 28.755 108.111 28.6423 107.424 28.6423C106.489 28.6423 105.756 28.8395 105.227 29.2339C104.697 29.6283 104.432 30.1804 104.432 30.8903C104.432 31.3297 104.551 31.6847 104.787 31.9551C105.024 32.2255 105.356 32.4453 105.785 32.6143C106.213 32.772 106.703 32.9185 107.255 33.0537C107.841 33.189 108.404 33.3354 108.945 33.4932C109.486 33.651 109.965 33.8481 110.382 34.0848C110.81 34.3101 111.148 34.6087 111.396 34.9806C111.644 35.3412 111.768 35.8032 111.768 36.3666C111.768 37.0539 111.588 37.6511 111.227 38.1582C110.866 38.6652 110.354 39.0596 109.689 39.3413C109.024 39.623 108.235 39.7639 107.323 39.7639Z" fill="#0A2642"/>
<path d="M20.7655 0.323645C20.2634 0.323645 19.643 0.353067 19.0227 0.411911C18.0775 0.441334 17.1027 0.500178 16.4529 0.500178C15.3895 0.500178 13.6172 0.411911 12.2289 0.353067C12.1107 0.353067 11.9926 0.441334 11.9926 0.617867V1.17689C11.9926 1.35342 12.0812 1.41227 12.2289 1.44169C12.3175 1.44169 12.3766 1.47111 12.5243 1.52996C13.0264 1.61822 13.9717 1.79476 14.3852 2.23609C14.7101 2.55973 14.7101 2.9128 14.7101 3.91316V8.32649H6.35076V3.91316C6.35076 2.88338 6.35076 2.53031 6.64614 2.20667C7.08922 1.76533 8.00491 1.55938 8.5366 1.50053C8.65476 1.47111 8.77291 1.47111 8.80245 1.47111C8.95014 1.44169 9.06829 1.38284 9.06829 1.20631V0.617867C9.06829 0.470756 8.95014 0.353067 8.77291 0.353067C7.3846 0.441334 5.78953 0.500178 4.81476 0.500178C4.22399 0.500178 3.3083 0.470756 2.33353 0.411911C1.62461 0.411911 0.915691 0.382489 0.295384 0.382489C0.17723 0.382489 0.0590768 0.441334 0.0590768 0.617867V1.20631C0.0590768 1.324 0.0590768 1.44169 0.295384 1.50053C0.324923 1.50053 0.413538 1.50053 0.443076 1.50053C0.886152 1.52996 2.06769 1.64765 2.48123 2.17725C2.77661 2.55973 2.83569 2.88338 2.83569 3.88374V15.4761C2.83569 16.5353 2.80615 16.8589 2.48123 17.2414C2.06769 17.7416 0.856614 17.8887 0.413538 17.9181C0.324923 17.9181 0.295384 17.9181 0.236307 17.9476C0.0590768 18.0358 0 18.0653 0 18.2418V18.8302C0 19.0068 0.118154 19.095 0.236307 19.095C1.59507 19.0068 3.60369 18.9479 4.66707 18.9479C5.16922 18.9479 6.94153 18.9479 8.71383 19.095C8.83199 19.095 8.95014 19.0068 8.95014 18.8302V18.2712C8.95014 18.1535 8.95014 18.0358 8.71383 17.977H8.68429C7.65045 17.8299 6.97107 17.5945 6.64614 17.2709C6.35076 16.9178 6.35076 16.5647 6.35076 15.5055V9.76818H14.7397V15.4761C14.7397 16.5059 14.7397 16.9178 14.3852 17.212C14.0898 17.5651 13.4104 17.771 12.3175 17.9181H12.2289C12.0517 18.0064 11.9926 18.0947 11.9926 18.2124V18.7714C11.9926 18.9479 12.1107 19.0362 12.2289 19.0362C13.6172 18.9185 15.2418 18.8891 16.2757 18.8891C17.3686 18.8891 19.4067 18.9773 20.736 19.0362C20.8541 19.0362 20.9723 18.9479 20.9723 18.7714V18.1829C20.9723 18.0064 20.9427 17.9476 20.736 17.8887C20.7064 17.8887 20.6474 17.8887 20.5883 17.8887C20.1452 17.8593 18.9341 17.7416 18.5206 17.212C18.2252 16.8295 18.1661 16.5059 18.1661 15.4467V3.91316C18.1661 2.88338 18.1957 2.55973 18.5206 2.17725C18.9341 1.64765 20.1157 1.52996 20.5587 1.50053C20.6474 1.50053 20.6769 1.50053 20.736 1.47111C20.9132 1.38285 20.9723 1.29458 20.9723 1.17689V0.588445C21.0018 0.441334 20.8837 0.323645 20.7655 0.323645ZM36.8344 14.1815H36.7458L36.6276 14.4463C35.9187 16.2411 35.387 17.5357 32.6695 17.5357C31.3107 17.5357 29.4203 17.4474 28.859 16.7707C28.5637 16.4765 28.5046 16.0057 28.5046 14.9171V10.1212H31.8129C32.8763 10.1212 33.2898 10.798 33.5261 12.9164V13.034H33.6443C34.2055 13.034 34.619 13.034 34.619 12.6221C34.619 12.2691 34.619 11.9454 34.5895 11.5335C34.5599 10.9451 34.5599 10.2095 34.5599 9.268C34.5599 8.62072 34.5895 7.35556 34.6486 6.67885C34.6486 6.41405 34.6486 6.26694 34.6486 6.23751C34.6486 5.85502 34.3532 5.85502 33.6738 5.85502H33.5556V5.97271C33.2898 8.03227 32.9058 8.67956 31.8424 8.67956H28.5341V3.29529C28.5341 2.44205 28.6227 2.3832 28.9476 2.05956C29.0953 1.91245 30.4246 1.79476 31.547 1.79476C34.5304 1.79476 35.2984 3.00107 35.5052 4.91351V5.0312H35.6233C36.0073 5.0312 36.5686 5.0312 36.5686 4.64871C36.5686 4.61929 36.5686 4.38391 36.5686 4.14854C36.5686 3.61893 36.539 2.82453 36.539 2.35378V0.294222H36.3913C35.7415 0.294222 35.1507 0.323645 34.5304 0.323645C32.256 0.411911 30.3064 0.441334 26.6437 0.441334C25.9938 0.441334 25.3735 0.411911 24.635 0.353067C24.0443 0.323645 23.3944 0.2648 22.6264 0.2648C22.272 0.2648 22.272 0.500178 22.272 0.559022V1.11804C22.272 1.41227 22.4197 1.50053 22.5378 1.50053C23.099 1.50053 24.4283 1.67707 24.7237 1.91245C24.8418 2.00071 24.96 2.08898 24.96 3.79547V15.1819C24.96 16.9178 24.8123 17.0649 24.6646 17.2414L24.635 17.2709C24.5464 17.418 23.808 17.6239 22.4787 17.7122C22.2424 17.7122 22.2424 17.8887 22.2424 17.977V18.5654C22.2424 18.7125 22.272 18.8596 22.6264 18.9185C23.3354 18.9185 24.0147 18.8891 24.6646 18.8302C25.4621 18.8008 26.2006 18.742 26.88 18.742C27.8252 18.742 32.9058 18.7714 36.6276 18.8891H36.7458L36.7753 18.7714C37.0116 18.0064 37.1593 17.3885 37.2775 16.7118C37.4252 15.9174 37.6615 14.5052 37.6615 14.2992C37.7796 14.1815 37.4843 14.1815 36.8344 14.1815ZM50.2153 10.9745H45.1052C45.8732 9.12089 46.5525 7.35556 47.1433 5.8256C47.3205 5.32542 47.5273 4.85467 47.675 4.38391C47.8522 4.91351 48.0885 5.47254 48.2658 6.03156C48.9156 7.70863 49.5655 9.44454 50.2153 10.9745ZM58.2498 17.8887L58.1316 17.8593C57.8953 17.8299 57.4227 17.7122 57.1864 17.5062C56.5956 17.1237 56.123 16.5941 55.1482 14.2992C54.2916 12.3573 52.3421 7.6792 49.4473 0.500178C49.2996 0.117689 49.1815 0 48.6202 0C48.0295 0 47.7932 0.2648 47.7636 0.500178C45.9027 5.26658 42.8898 12.4162 41.0289 16.4765C40.763 17.0355 40.1722 17.5651 39.5815 17.7122C39.4042 17.8005 39.227 17.8299 38.9907 17.8299L38.7544 17.8593C38.5181 17.9476 38.5181 18.1241 38.5181 18.2124V18.7714C38.5181 18.8597 38.5181 19.0362 38.6953 19.0362C39.4042 18.9479 40.4972 18.8891 41.531 18.8891C42.7126 18.8891 43.835 18.9773 44.9279 19.0362H45.0756V18.0653H44.9279C43.3329 18.0358 43.0079 17.6239 43.0079 16.9766C43.0079 16.8295 43.0079 16.4176 43.1852 15.9174L44.5144 12.4456H50.5402L52.0467 16.1234C52.1944 16.5059 52.283 16.7707 52.283 17.0355C52.283 17.7416 51.6332 17.977 50.4812 18.0947H50.363V19.1245H50.5107C51.8695 19.0068 53.0805 18.9773 54.2621 18.9773C54.971 18.9773 55.7981 19.0068 56.6547 19.0656C57.1864 19.095 57.7181 19.1539 58.1907 19.1539C58.427 19.1539 58.427 19.0068 58.427 18.8891V18.3301C58.5156 18.0653 58.3974 17.977 58.2498 17.8887ZM65.723 1.94187C66.1365 1.70649 67.0522 1.64765 67.7316 1.64765C70.2128 1.64765 71.3648 2.76569 71.3648 5.14889C71.3648 8.12054 70.0947 9.50338 67.3181 9.50338C66.6387 9.50338 66.107 9.47396 65.723 9.38569V1.94187ZM78.3063 18.1829C78.2177 18.1535 78.1882 18.1535 78.1291 18.0653L78.0109 17.977C77.7156 17.8299 77.302 17.6239 76.8885 17.2709C75.2343 16.0351 73.3439 13.1812 71.9556 11.0333C71.6897 10.6214 71.4239 10.2389 71.1876 9.91529C73.5211 9.0032 75.1753 7.09076 75.1753 5.14889C75.1753 2.94222 74.0528 0.2648 68.6177 0.2648C67.9384 0.2648 66.4024 0.294222 64.9845 0.382489C63.9211 0.411911 63.035 0.470756 62.7101 0.470756H60.0221C59.9039 0.470756 59.6381 0.470756 59.6381 0.735556V1.324C59.6381 1.50053 59.7267 1.50053 59.8744 1.5888C60.0516 1.61822 60.3765 1.67707 60.6719 1.67707C61.1741 1.70649 61.9125 1.79476 62.0307 1.94187C62.1488 2.05956 62.2079 2.17725 62.2079 3.85431V15.2996C62.2079 17.0061 62.0897 17.1826 61.9716 17.3591C61.8534 17.5357 61.0264 17.7122 60.5242 17.771C60.347 17.8005 60.1698 17.8005 60.0221 17.8593C59.8744 17.9181 59.7858 17.9476 59.7858 18.1241V18.7125C59.7858 18.8891 59.9039 19.0068 60.0811 19.0068C61.5876 18.9185 63.6257 18.8597 64.2461 18.8597C64.6891 18.8597 65.8411 18.8891 66.875 18.9479C67.5544 18.9773 68.2042 18.9773 68.6768 19.0362C68.8245 19.0362 68.9131 18.8597 68.9131 18.7714V18.0947C68.9131 17.977 68.795 17.8593 68.6768 17.8593C68.1156 17.8593 66.4024 17.6828 65.9888 17.1532C65.6934 16.8001 65.6048 16.1822 65.5753 15.2701C65.5457 14.8288 65.5753 11.6218 65.5753 10.8568C66.107 10.8568 67.1704 10.8568 68.0565 10.7685C68.47 11.3276 68.9722 12.2396 69.5039 13.1812C69.7993 13.7108 70.0947 14.2698 70.4196 14.77C71.6602 16.9766 72.6054 18.2418 73.2553 18.5066C74.0528 18.8597 75.1457 19.0068 76.475 19.0068C76.9771 19.0068 77.5088 19.0068 78.2177 18.9773C78.4836 18.9773 78.4836 18.6831 78.4836 18.4772C78.5722 18.3006 78.3654 18.2418 78.3063 18.1829Z" fill="#0A2642"/>
<path d="M94.4048 0.323645H94.3162C92.7802 0.353067 91.5987 0.353067 90.4172 0.411911C89.0584 0.441333 87.8178 0.500178 86.1636 0.500178C83.3575 0.500178 81.7329 0.470756 77.7452 0.353067H77.627V0.470756C77.5975 0.588445 77.5089 0.735556 77.5089 1.14747V4.79582C77.5089 5.5608 78.011 5.5608 78.6018 5.5608H78.72V5.44311C78.9858 3.14818 79.6652 1.79476 82.3827 1.79476H84.3027V15.5349C84.3027 16.5941 84.3027 16.8884 84.0073 17.2414C83.5052 17.8004 82.2941 17.8887 81.8215 17.9181H81.7329C81.5852 18.0064 81.5852 18.0652 81.5852 18.2124V18.7714C81.5852 18.9479 81.6738 19.0656 81.8215 19.0656C83.1803 18.9773 85.1003 18.9185 86.2523 18.9185C87.4929 18.9185 89.2061 18.9479 90.1809 19.0656C90.3286 19.0656 90.4467 18.9479 90.4467 18.7714V18.2418C90.4467 18.1241 90.4467 18.0064 90.2104 17.9476C89.7673 17.9181 88.6744 17.7122 88.1427 17.2414C87.8473 16.8884 87.8473 16.5647 87.8473 15.5349V1.76533H89.6196C92.4553 1.76533 93.1347 3.03049 93.4301 5.41369V5.53138H93.5482C93.6664 5.53138 93.7845 5.53138 93.8436 5.53138C94.4048 5.53138 94.6116 5.38427 94.6116 4.82525V1.29458C94.6116 0.853245 94.5821 0.588445 94.4639 0.382489L94.4048 0.323645ZM110.74 14.1815H110.651L110.621 14.2698C109.794 16.2999 109.115 17.5356 106.516 17.5356C104.891 17.5356 103.266 17.4474 102.705 16.8589C102.262 16.3588 102.262 15.888 102.262 15.1524V3.58951C102.262 2.79511 102.262 2.47147 102.557 2.14782C103.001 1.70649 104.005 1.50053 104.507 1.44169C104.625 1.41227 104.743 1.41227 104.802 1.41227C104.95 1.38284 105.039 1.324 105.039 1.14747V0.617867C105.039 0.323644 104.861 0.323645 104.802 0.323645C103.68 0.411911 101.73 0.470756 100.637 0.470756C99.8695 0.470756 98.4812 0.382489 97.3587 0.353067C96.9452 0.323645 96.5316 0.323645 96.2362 0.323645C96.1476 0.323645 95.9704 0.353067 95.9704 0.617867V1.20631C95.9704 1.324 95.9704 1.44169 96.2067 1.50053C96.2362 1.50053 96.3249 1.50053 96.3839 1.50053C96.8861 1.52996 98.0085 1.64764 98.4221 2.17725C98.7175 2.55973 98.7765 2.88338 98.7765 3.91316V15.329C98.7765 16.3588 98.5993 16.9472 98.4221 17.1237C97.979 17.7122 97.1519 17.8004 96.6498 17.8299C96.5021 17.8593 96.4135 17.9181 96.4135 18.0947V18.6831C96.4135 18.7714 96.4135 18.9479 96.6793 19.0362H96.7089C97.0928 19.0362 97.6245 19.0068 98.1858 18.9479C99.3969 18.9185 100.756 18.8302 101.317 18.8302C102.38 18.8302 107.874 18.9185 110.681 18.9773H110.799L110.828 18.8596C110.917 18.5066 110.976 18.1829 111.065 17.8004C111.153 17.3591 111.242 16.8884 111.36 16.447C111.537 15.5055 111.744 14.5346 111.744 14.4169C111.773 14.2109 111.36 14.1815 110.74 14.1815ZM123.943 10.9745H118.833C119.601 9.12089 120.281 7.4144 120.842 5.85502C121.019 5.32542 121.226 4.82525 121.403 4.35449C121.639 4.91351 121.817 5.47253 122.053 6.06098C122.703 7.73805 123.293 9.44454 123.943 10.9745ZM131.978 17.8887L131.86 17.8593C131.623 17.8299 131.151 17.7122 130.914 17.5062C130.324 17.1237 129.851 16.5941 128.876 14.2992C127.547 11.2981 124.209 2.94222 123.175 0.500178C123.028 0.117689 122.909 0 122.348 0C121.757 0 121.521 0.2648 121.492 0.500178C119.424 5.79618 116.381 12.9164 114.757 16.4764C114.491 17.0355 113.9 17.5651 113.309 17.7122C113.132 17.8004 112.955 17.8299 112.719 17.8299L112.482 17.8593C112.246 17.9476 112.246 18.1241 112.246 18.2124V18.7714C112.246 18.8596 112.246 19.0362 112.423 19.0362C113.132 18.9479 114.225 18.8891 115.259 18.8891C116.441 18.8891 117.533 18.9773 118.656 19.0362H118.804V18.0652H118.685C117.09 18.0358 116.765 17.6239 116.765 16.9766C116.765 16.8295 116.795 16.4176 116.943 15.9174L118.272 12.4456H124.298L125.804 16.1234C125.952 16.5059 126.041 16.7707 126.041 17.0355C126.041 17.7416 125.391 17.977 124.239 18.0947H124.121V19.1244H124.268C125.627 19.0068 126.838 18.9773 128.02 18.9773C128.729 18.9773 129.556 19.0068 130.412 19.0656C130.944 19.095 131.476 19.1539 131.948 19.1539C132.184 19.1539 132.184 19.0068 132.184 18.8891V18.33C132.244 18.0652 132.184 17.977 131.978 17.8887ZM150.794 0.470756C150.292 0.470756 148.844 0.470756 146.954 0.323645H146.806V1.38284H146.924C149.258 1.55938 149.789 2.55973 150.085 4.79582C150.262 6.64942 150.469 11.5335 150.528 14.2404C147.101 10.7097 143.232 6.03156 138.594 0.353067L138.565 0.2648H138.476C137.501 0.382489 136.586 0.411911 135.67 0.411911C135.138 0.411911 134.636 0.382489 134.075 0.323645C133.661 0.294222 133.248 0.235378 132.834 0.235378H132.687V1.08862C132.687 1.35342 132.775 1.47111 133.071 1.50053C134.193 1.67707 135.67 2.67742 136.29 3.61893C136.29 8.44418 136.202 13.9167 136.172 14.7994C136.054 16.653 135.788 17.0649 135.67 17.1826C135.168 17.5945 134.341 17.771 134.045 17.8593C133.957 17.8593 133.927 17.8887 133.898 17.8887C133.661 17.977 133.661 18.1829 133.661 18.2712V19.095H133.809C134.902 18.9773 136.527 18.9479 137.324 18.9479C138.24 18.9479 139.628 19.0362 140.957 19.095H141.105V18.0358H140.987C138.447 17.8593 138.122 16.5941 138.004 13.9756C137.885 12.4456 137.708 7.53209 137.62 4.82525C143.232 11.4452 147.308 15.7997 149.524 18.1829C149.878 18.536 150.173 18.8596 150.38 19.1244L150.41 19.1539H151.532C151.798 19.1244 151.887 18.9773 151.887 18.742C151.887 18.1829 151.887 17.5062 151.857 16.8001C151.828 16.0057 151.828 15.1819 151.828 14.358C151.828 11.4158 151.828 8.29707 151.857 6.41405C151.857 5.5608 151.857 4.91351 151.857 4.61929C151.857 2.70685 152.536 2.08898 153.216 1.76533C153.482 1.61822 153.866 1.50053 154.191 1.41227C154.309 1.38284 154.368 1.38284 154.486 1.324C154.663 1.20631 154.663 0.764978 154.663 0.764978V0.294222L153.186 0.382489C152.182 0.441333 151.237 0.470756 150.794 0.470756ZM165.504 17.6533C165.09 17.6533 163.613 17.6239 163.023 17.2414C162.727 17.006 162.314 16.5941 162.314 15.4761V1.67707C163.348 1.41227 164.795 1.41227 165.711 1.41227C170.319 1.41227 172.741 4.35449 172.741 9.82702C172.711 16.9178 167.69 17.6533 165.504 17.6533ZM166.567 0.0588445C165.652 0.0588445 164.145 0.0882667 162.786 0.147111C161.664 0.176533 160.6 0.235378 160.069 0.235378H156.583C156.347 0.235378 156.199 0.235378 156.199 0.470756V1.11804C156.199 1.29458 156.288 1.38284 156.465 1.38284C156.642 1.41227 156.879 1.47111 157.174 1.50053C157.617 1.52996 158.356 1.61822 158.444 1.79476L158.474 1.82418C158.592 1.94187 158.71 2.1184 158.71 3.73662V15.4172C158.71 17.0355 158.562 17.212 158.415 17.418C158.267 17.5945 157.499 17.7122 157.056 17.8004C156.79 17.8299 156.554 17.8887 156.406 17.9181C156.17 18.0064 156.17 18.0947 156.17 18.3006V18.8008C156.17 18.8891 156.17 19.1539 156.406 19.1539C158.06 19.0656 159.626 19.0068 160.512 19.0068C161.014 19.0068 161.989 19.0362 162.934 19.095C163.909 19.1244 164.824 19.1833 165.268 19.1833C170.939 19.1833 176.64 15.7703 176.64 9.20916C176.669 3.4424 172.918 0.0588445 166.567 0.0588445Z" fill="#0A2642"/>
</svg>
